<?xml version="1.0" encoding="UTF-8" standalone="no"?>
<svg
   xmlns:osb="http://www.openswatchbook.org/uri/2009/osb"
   xmlns:dc="http://purl.org/dc/elements/1.1/"
   xmlns:cc="http://creativecommons.org/ns#"
   xmlns:rdf="http://www.w3.org/1999/02/22-rdf-syntax-ns#"
   xmlns:svg="http://www.w3.org/2000/svg"
   xmlns="http://www.w3.org/2000/svg"
   xmlns:sodipodi="http://sodipodi.sourceforge.net/DTD/sodipodi-0.dtd"
   xmlns:inkscape="http://www.inkscape.org/namespaces/inkscape"
   id="svg2"
   width="22"
   height="22"
   version="1.1"
   inkscape:version="0.91 r13725"
   sodipodi:docname="drive.svg">
  <metadata
     id="metadata149">
    <rdf:RDF>
      <cc:Work
         rdf:about="">
        <dc:format>image/svg+xml</dc:format>
        <dc:type
           rdf:resource="http://purl.org/dc/dcmitype/StillImage" />
      </cc:Work>
    </rdf:RDF>
  </metadata>
  <sodipodi:namedview
     pagecolor="#ffffff"
     bordercolor="#666666"
     borderopacity="1"
     objecttolerance="10"
     gridtolerance="10"
     guidetolerance="10"
     inkscape:pageopacity="0"
     inkscape:pageshadow="2"
     inkscape:window-width="640"
     inkscape:window-height="480"
     id="namedview147"
     showgrid="false"
     inkscape:zoom="7.5853273"
     inkscape:cx="-13.768113"
     inkscape:cy="11.62424"
     inkscape:window-x="0"
     inkscape:window-y="0"
     inkscape:window-maximized="0"
     inkscape:current-layer="16-16-drive-harddisk" />
  <defs
     id="defs4">
    <linearGradient
       id="linearGradient5606"
       osb:paint="solid">
      <stop
         id="stop5608"
         offset="0"
         style="stop-color:#000000;stop-opacity:1" />
    </linearGradient>
  </defs>
  <rect
     id="rect3018"
     width="16"
     height="16"
     x="-20.43"
     y="-19.39"
     ry="0"
     style="opacity:0;fill:#cfd8dc;fill-opacity:1;stroke:none" />
  <g
     id="16-16-drive-harddisk">
    <rect
       id="rect3835"
       width="16"
       height="16"
       x="-20"
       y="6"
       ry="0"
       style="opacity:0;fill:#131313;fill-opacity:0.67054266;stroke:none" />
    <path
       id="rect8476"
       d="m -17,7 c -1,0 -1,1 -1,1 l 0,12 c 0,0 0,1 1,1 l 10,0 c 0,0 1,0 1,-1 L -6,8 c 0,0 0,-1 -1,-1 z m 5,2 c 2.20914,0 4,1.79086 4,4 0,2.20914 -1.79086,4 -4,4 l -4,0 0,-4 c 0,-2.20914 1.79086,-4 4,-4 z m 0,2 c -1.10457,0 -2,0.89543 -2,2 0,1.10457 0.89543,2 2,2 1.10457,0 2,-0.89543 2,-2 0,-1.10457 -0.89543,-2 -2,-2 z"
       style="display:inline;opacity:1;fill:#52504d;fill-opacity:1;stroke:none;filter:url(#filter7554);enable-background:new" />
  </g>
  <g
     id="drive-harddisk">
    <rect
       id="rect3004"
       width="22"
       height="22"
       x="0"
       y="0"
       ry="1.375"
       style="opacity:0;fill:#cfd8dc;fill-opacity:1;stroke:none" />
    <path
       id="path4153"
       d="M 5.166016,3 C 3.99935,3 4,4.142578 4,4.142578 L 4,17.857422 C 4,17.857422 3.99935,19 5.166016,19 l 11.667968,0 C 16.833984,19 18,19.000279 18,17.857422 L 18,4.142578 C 18,4.142578 18.00065,3 16.833984,3 L 5.166016,3 Z M 11,5 c 2.761425,0 5,2.238575 5,5 0,2.761425 -2.238575,5 -5,5 L 6,15 6,10 C 6,7.238575 8.238573,5 11,5 Z m 0,3 c -1.10457,0 -2,0.89543 -2,2 0,1.10457 0.89543,2 2,2 1.10457,0 2,-0.89543 2,-2 0,-1.10457 -0.89543,-2 -2,-2 z"
       style="display:inline;opacity:1;fill:#52504d;fill-opacity:1;stroke:none;filter:url(#filter7554);enable-background:new" />
  </g>
</svg>
