<?xml version="1.0" encoding="UTF-8" standalone="no"?>
<svg
   xmlns:osb="http://www.openswatchbook.org/uri/2009/osb"
   xmlns:dc="http://purl.org/dc/elements/1.1/"
   xmlns:cc="http://creativecommons.org/ns#"
   xmlns:rdf="http://www.w3.org/1999/02/22-rdf-syntax-ns#"
   xmlns:svg="http://www.w3.org/2000/svg"
   xmlns="http://www.w3.org/2000/svg"
   xmlns:sodipodi="http://sodipodi.sourceforge.net/DTD/sodipodi-0.dtd"
   xmlns:inkscape="http://www.inkscape.org/namespaces/inkscape"
   id="svg7384"
   width="22"
   height="22"
   version="1.1"
   style="enable-background:new"
   inkscape:version="0.91 r13725"
   sodipodi:docname="kget.svg">
  <metadata
     id="metadata26">
    <rdf:RDF>
      <cc:Work
         rdf:about="">
        <dc:format>image/svg+xml</dc:format>
        <dc:type
           rdf:resource="http://purl.org/dc/dcmitype/StillImage" />
      </cc:Work>
    </rdf:RDF>
  </metadata>
  <sodipodi:namedview
     pagecolor="#ffffff"
     bordercolor="#666666"
     borderopacity="1"
     objecttolerance="10"
     gridtolerance="10"
     guidetolerance="10"
     inkscape:pageopacity="0"
     inkscape:pageshadow="2"
     inkscape:window-width="640"
     inkscape:window-height="480"
     id="namedview24"
     showgrid="false"
     inkscape:zoom="10.727273"
     inkscape:cx="11"
     inkscape:cy="11"
     inkscape:window-x="0"
     inkscape:window-y="0"
     inkscape:window-maximized="0"
     inkscape:current-layer="kget" />
  <defs
     id="defs7386">
    <linearGradient
       id="linearGradient5606"
       osb:paint="solid">
      <stop
         id="stop5608"
         offset="0"
         style="stop-color:#000000;stop-opacity:1" />
    </linearGradient>
  </defs>
  <g
     id="kget"
     transform="translate(-305.00291,86.019038)">
    <path
       id="rect4139"
       d="m 305.25291,-86.019038 21.5,0 c 0.1385,0 0.25,0.111499 0.25,0.250001 l 0,21.499999 c 0,0.1385 -0.11151,0.25 -0.25,0.25 l -21.5,0 c -0.1385,0 -0.25,-0.111499 -0.25,-0.25 l 0,-21.499999 c 0,-0.138501 0.11151,-0.250001 0.25,-0.250001 z"
       style="opacity:0;fill:#00000f;fill-opacity:1;stroke:none;stroke-opacity:1" />
    <path
       id="path5972"
       d="m 314.00291,-83.019038 0,7 -3,0 4.99999,6 5.00001,-6 -3,0 0,-7 z m -6,16 16,0 0,-2 -15.99926,0 z"
       style="opacity:1;fill:#52504d;fill-opacity:1;fill-rule:nonzero;stroke:none" />
  </g>
</svg>
