<?xml version="1.0" encoding="UTF-8" standalone="no"?>
<svg
   xmlns:dc="http://purl.org/dc/elements/1.1/"
   xmlns:cc="http://creativecommons.org/ns#"
   xmlns:rdf="http://www.w3.org/1999/02/22-rdf-syntax-ns#"
   xmlns:svg="http://www.w3.org/2000/svg"
   xmlns="http://www.w3.org/2000/svg"
   xmlns:sodipodi="http://sodipodi.sourceforge.net/DTD/sodipodi-0.dtd"
   xmlns:inkscape="http://www.inkscape.org/namespaces/inkscape"
   id="svg4141"
   width="22"
   height="22"
   version="1.1"
   viewBox="0 0 22 22"
   inkscape:version="0.91 r13725"
   sodipodi:docname="kteatime.svg">
  <metadata
     id="metadata10">
    <rdf:RDF>
      <cc:Work
         rdf:about="">
        <dc:format>image/svg+xml</dc:format>
        <dc:type
           rdf:resource="http://purl.org/dc/dcmitype/StillImage" />
      </cc:Work>
    </rdf:RDF>
  </metadata>
  <defs
     id="defs8" />
  <sodipodi:namedview
     pagecolor="#ffffff"
     bordercolor="#666666"
     borderopacity="1"
     objecttolerance="10"
     gridtolerance="10"
     guidetolerance="10"
     inkscape:pageopacity="0"
     inkscape:pageshadow="2"
     inkscape:window-width="836"
     inkscape:window-height="480"
     id="namedview6"
     showgrid="false"
     inkscape:zoom="10.727273"
     inkscape:cx="11"
     inkscape:cy="11"
     inkscape:window-x="0"
     inkscape:window-y="0"
     inkscape:window-maximized="0"
     inkscape:current-layer="kteatime" />
  <g
     id="kteatime">
    <rect
       id="rect3009"
       width="22"
       height="22"
       x="0"
       y="0"
       style="fill:#cfd8dc;fill-opacity:0;stroke:none" />
    <path
       id="path4147"
       d="m 4,3 0,11 c 0,1.108 0.892,2 2,2 l 8,0 c 1,0 2,-1 2,-2 l 0,-1 c 2.209139,0 4,-1.790861 4,-4 C 20,6.790861 18.209139,5 16,5 L 16,3 4,3 Z m 12,4 c 1.656854,0 2,0.3431458 2,2 0,1.656854 -0.343146,2 -2,2 l 0,-4 z m -14,10 0,2 16,0 0,-2 -16,0 z"
       style="color:#7b7c7e;opacity:1;fill:#52504d;fill-opacity:1" />
  </g>
</svg>
