<?xml version="1.0" encoding="UTF-8" standalone="no"?>
<svg
   xmlns:dc="http://purl.org/dc/elements/1.1/"
   xmlns:cc="http://creativecommons.org/ns#"
   xmlns:rdf="http://www.w3.org/1999/02/22-rdf-syntax-ns#"
   xmlns:svg="http://www.w3.org/2000/svg"
   xmlns="http://www.w3.org/2000/svg"
   xmlns:sodipodi="http://sodipodi.sourceforge.net/DTD/sodipodi-0.dtd"
   xmlns:inkscape="http://www.inkscape.org/namespaces/inkscape"
   id="svg4153"
   width="22"
   height="22"
   version="1.1"
   viewBox="0 0 22 22"
   inkscape:version="0.91 r13725"
   sodipodi:docname="software.svg">
  <metadata
     id="metadata982">
    <rdf:RDF>
      <cc:Work
         rdf:about="">
        <dc:format>image/svg+xml</dc:format>
        <dc:type
           rdf:resource="http://purl.org/dc/dcmitype/StillImage" />
      </cc:Work>
    </rdf:RDF>
  </metadata>
  <defs
     id="defs980" />
  <sodipodi:namedview
     pagecolor="#ffffff"
     bordercolor="#666666"
     borderopacity="1"
     objecttolerance="10"
     gridtolerance="10"
     guidetolerance="10"
     inkscape:pageopacity="0"
     inkscape:pageshadow="2"
     inkscape:window-width="1366"
     inkscape:window-height="708"
     id="namedview978"
     showgrid="false"
     inkscape:zoom="5.3636364"
     inkscape:cx="54.686629"
     inkscape:cy="17.249173"
     inkscape:window-x="0"
     inkscape:window-y="0"
     inkscape:window-maximized="1"
     inkscape:current-layer="svg4153" />
  <g
     id="software-updates-updates"
     transform="translate(27,0)">
    <rect
       id="rect4163"
       width="22"
       height="22"
       x="0"
       y="0"
       style="opacity:0;fill:#7a0000;fill-opacity:1;stroke:none;stroke-opacity:1" />
    <path
       id="path4163"
       d="M 10.761719,3.0136719 A 8,8 0 0 0 4.0722656,7 8,8 0 0 0 5.3984375,16.703125 L 6.4433594,14.892578 A 6,6 0 0 1 5.8046875,8 6,6 0 0 1 12.09375,5.1074219 L 13.134766,3.3027344 A 8,8 0 0 0 10.761719,3.0136719 Z"
       style="opacity:1;fill:#52504d;fill-opacity:1;stroke:none;stroke-opacity:1" />
    <path
       id="path4161"
       d="M 16.601562,5.296875 15.556641,7.1074219 A 6,6 0 0 1 16.195312,14 6,6 0 0 1 9.90625,16.892578 L 8.8652344,18.697266 A 8,8 0 0 0 17.927734,15 8,8 0 0 0 16.601562,5.296875 Z"
       style="opacity:1;fill:#52504d;fill-opacity:1;stroke:none;stroke-opacity:1" />
    <path
       id="path4159"
       d="m 10,7 0,5 2,0 0,-5 -2,0 z"
       style="opacity:1;fill:#73ba25;fill-opacity:1;stroke:none;stroke-opacity:1" />
    <path
       id="path4148"
       d="m 11,13 a 1,1 0 0 0 -1,1 1,1 0 0 0 1,1 1,1 0 0 0 1,-1 1,1 0 0 0 -1,-1 z"
       style="opacity:1;fill:#73ba25;fill-opacity:1;stroke:none;stroke-opacity:1" />
  </g>
  <g
     id="software-updates-additional">
    <rect
       id="rect4172"
       width="22"
       height="22"
       x="0"
       y="0"
       style="opacity:0;fill:#7a0000;fill-opacity:1;stroke:none;stroke-opacity:1" />
    <path
       id="path4173"
       d="M 10.761719,3.0136719 A 8,8 0 0 0 4.072266,7 8,8 0 0 0 5.398438,16.703125 L 6.443359,14.892578 A 6,6 0 0 1 5.804688,8 6,6 0 0 1 12.09375,5.1074219 L 13.134766,3.3027344 A 8,8 0 0 0 10.761719,3.0136719 Z"
       style="opacity:1;fill:#52504d;fill-opacity:1;stroke:none;stroke-opacity:1" />
    <path
       id="path4171"
       d="M 16.601562,5.296875 15.556641,7.1074219 A 6,6 0 0 1 16.195312,14 6,6 0 0 1 9.90625,16.892578 L 8.865234,18.697266 A 8,8 0 0 0 17.927734,15 8,8 0 0 0 16.601562,5.296875 Z"
       style="opacity:1;fill:#52504d;fill-opacity:1;stroke:none;stroke-opacity:1" />
    <path
       id="path4169"
       d="M 8,10 A 1,1 0 0 0 7,11 1,1 0 0 0 8,12 1,1 0 0 0 9,11 1,1 0 0 0 8,10 Z"
       style="opacity:1;fill:#73ba25;fill-opacity:1;stroke:none;stroke-opacity:1" />
    <path
       id="path4167"
       d="m 11,10 a 1,1 0 0 0 -1,1 1,1 0 0 0 1,1 1,1 0 0 0 1,-1 1,1 0 0 0 -1,-1 z"
       style="opacity:1;fill:#73ba25;fill-opacity:1;stroke:none;stroke-opacity:1" />
    <path
       id="path4174"
       d="m 14,10 a 1,1 0 0 0 -1,1 1,1 0 0 0 1,1 1,1 0 0 0 1,-1 1,1 0 0 0 -1,-1 z"
       style="opacity:1;fill:#73ba25;fill-opacity:1;stroke:none;stroke-opacity:1" />
  </g>
  <g
     id="software-updates-security"
     transform="translate(54,0)">
    <rect
       id="rect4204"
       width="22"
       height="22"
       x="0"
       y="0"
       style="opacity:0;fill:#7a0000;fill-opacity:1;stroke:none;stroke-opacity:1" />
    <path
       id="path4155"
       d="M 10.761719,3.0136719 A 8,8 0 0 0 4.0722656,7 8,8 0 0 0 5.3984375,16.703125 L 6.4433594,14.892578 A 6,6 0 0 1 5.8046875,8 6,6 0 0 1 12.09375,5.1074219 L 13.134766,3.3027344 A 8,8 0 0 0 10.761719,3.0136719 Z"
       style="opacity:1;fill:#52504d;fill-opacity:1;stroke:none;stroke-opacity:1" />
    <path
       id="path4153"
       d="M 16.601562,5.296875 15.556641,7.1074219 A 6,6 0 0 1 16.195312,14 6,6 0 0 1 9.90625,16.892578 L 8.8652344,18.697266 A 8,8 0 0 0 17.927734,15 8,8 0 0 0 16.601562,5.296875 Z"
       style="opacity:1;fill:#52504d;fill-opacity:1;stroke:none;stroke-opacity:1" />
    <path
       id="path4151"
       d="m 10,7 0,5 2,0 0,-5 -2,0 z"
       style="opacity:1;fill:#73ba25;fill-opacity:1;stroke:none;stroke-opacity:1" />
    <path
       id="path4206"
       d="m 11,13 a 1,1 0 0 0 -1,1 1,1 0 0 0 1,1 1,1 0 0 0 1,-1 1,1 0 0 0 -1,-1 z"
       style="opacity:1;fill:#73ba25;fill-opacity:1;stroke:none;stroke-opacity:1" />
  </g>
  <g
     id="software-updates-inactive"
     transform="translate(82.3,0)">
    <rect
       id="rect4210"
       width="22"
       height="22"
       x="0"
       y="0"
       style="opacity:0;fill:#7a0000;fill-opacity:1;stroke:none;stroke-opacity:1" />
    <path
       id="path4220"
       d="M 66.0625,3.0136719 A 8,8 0 0 0 59.373047,7 a 8,8 0 0 0 1.326172,9.703125 l 1.044922,-1.810547 A 6,6 0 0 1 61.105469,8 6,6 0 0 1 67.394531,5.1074219 L 68.435547,3.3027344 A 8,8 0 0 0 66.0625,3.0136719 Z M 71.902344,5.296875 70.857422,7.1074219 A 6,6 0 0 1 71.496094,14 6,6 0 0 1 65.207031,16.892578 l -1.041015,1.804688 A 8,8 0 0 0 73.228516,15 8,8 0 0 0 71.902344,5.296875 Z"
       transform="translate(-55.3,0)"
       style="opacity:1;fill:#52504d;fill-opacity:1;stroke:none;stroke-opacity:1" />
  </g>
  <g
     id="software-updates-release"
     transform="translate(-22,0)">
    <rect
       id="rect4198"
       width="22"
       height="22"
       x="0"
       y="0"
       style="opacity:0;fill:#7a0000;fill-opacity:1;stroke:none;stroke-opacity:1" />
    <path
       id="path4181"
       d="M 10.761719,3.0136719 A 8,8 0 0 0 4.0722656,7 8,8 0 0 0 5.3984375,16.703125 L 6.4433594,14.892578 A 6,6 0 0 1 5.8046875,8 6,6 0 0 1 12.09375,5.1074219 L 13.134766,3.3027344 A 8,8 0 0 0 10.761719,3.0136719 Z"
       style="opacity:1;fill:#52504d;fill-opacity:1;stroke:none;stroke-opacity:1" />
    <path
       id="path4179"
       d="M 16.601562,5.296875 15.556641,7.1074219 A 6,6 0 0 1 16.195312,14 6,6 0 0 1 9.90625,16.892578 L 8.8652344,18.697266 A 8,8 0 0 0 17.927734,15 8,8 0 0 0 16.601562,5.296875 Z"
       style="opacity:1;fill:#52504d;fill-opacity:1;stroke:none;stroke-opacity:1" />
    <path
       id="path4177"
       d="m 10,7 0,5 2,0 0,-5 -2,0 z"
       style="opacity:1;fill:#73ba25;fill-opacity:1;stroke:none;stroke-opacity:1" />
    <path
       id="path4200"
       d="m 11,13 a 1,1 0 0 0 -1,1 1,1 0 0 0 1,1 1,1 0 0 0 1,-1 1,1 0 0 0 -1,-1 z"
       style="opacity:1;fill:#73ba25;fill-opacity:1;stroke:none;stroke-opacity:1" />
  </g>
</svg>
