<?xml version="1.0" encoding="UTF-8" standalone="no"?>
<svg
   xmlns:osb="http://www.openswatchbook.org/uri/2009/osb"
   xmlns:dc="http://purl.org/dc/elements/1.1/"
   xmlns:cc="http://creativecommons.org/ns#"
   xmlns:rdf="http://www.w3.org/1999/02/22-rdf-syntax-ns#"
   xmlns:svg="http://www.w3.org/2000/svg"
   xmlns="http://www.w3.org/2000/svg"
   xmlns:sodipodi="http://sodipodi.sourceforge.net/DTD/sodipodi-0.dtd"
   xmlns:inkscape="http://www.inkscape.org/namespaces/inkscape"
   id="svg7384"
   width="22"
   height="22"
   version="1.1"
   style="enable-background:new"
   inkscape:version="0.91 r13725"
   sodipodi:docname="zoom.svg">
  <metadata
     id="metadata254">
    <rdf:RDF>
      <cc:Work
         rdf:about="">
        <dc:format>image/svg+xml</dc:format>
        <dc:type
           rdf:resource="http://purl.org/dc/dcmitype/StillImage" />
      </cc:Work>
    </rdf:RDF>
  </metadata>
  <sodipodi:namedview
     pagecolor="#ffffff"
     bordercolor="#666666"
     borderopacity="1"
     objecttolerance="10"
     gridtolerance="10"
     guidetolerance="10"
     inkscape:pageopacity="0"
     inkscape:pageshadow="2"
     inkscape:window-width="640"
     inkscape:window-height="480"
     id="namedview252"
     showgrid="false"
     inkscape:zoom="3.7926636"
     inkscape:cx="-8.9316513"
     inkscape:cy="19.809833"
     inkscape:window-x="0"
     inkscape:window-y="0"
     inkscape:window-maximized="0"
     inkscape:current-layer="zoom-fit-width" />
  <defs
     id="defs7386">
    <linearGradient
       id="linearGradient5606"
       osb:paint="solid">
      <stop
         id="stop5608"
         offset="0"
         style="stop-color:#000000;stop-opacity:1" />
    </linearGradient>
  </defs>
  <g
     id="zoom-fit-width"
     transform="translate(-465.0002,65.00334)">
    <rect
       id="rect3338"
       width="22"
       height="22"
       x="465"
       y="-65"
       style="opacity:0;fill:#0000ff;fill-rule:evenodd;stroke:none;stroke-width:1px;stroke-linecap:butt;stroke-linejoin:miter;stroke-opacity:1" />
    <path
       id="path5837"
       d="m 473.0002,-57.00334 -5,3 5,3 0,-2 6,0 0,2 5,-3 -5,-3 0,2 -6,0 0,-2 z"
       style="opacity:1;fill:#52504d;fill-opacity:1;stroke:none" />
  </g>
  <g
     id="zoom-fit-height"
     transform="matrix(0,1,-1,0,-17.00334,-465.00037)">
    <rect
       id="rect4142"
       width="22"
       height="22"
       x="465"
       y="-65"
       style="opacity:0;fill:#0000ff;fill-rule:evenodd;stroke:none;stroke-width:1px;stroke-linecap:butt;stroke-linejoin:miter;stroke-opacity:1" />
    <path
       id="path4144"
       d="m 473.0002,-57.00334 -5,3 5,3 0,-2 6,0 0,2 5,-3 -5,-3 0,2 -6,0 0,-2 z"
       style="opacity:1;fill:#52504d;fill-opacity:1;stroke:none" />
  </g>
  <g
     id="16-16-zoom-fit-width"
     transform="translate(-486.00018,85.003342)"
     style="display:inline;enable-background:new">
    <rect
       id="rect4142-1"
       width="16"
       height="16"
       x="489"
       y="-59"
       style="opacity:0;fill:#0000ff;fill-rule:evenodd;stroke:none;stroke-width:1px;stroke-linecap:butt;stroke-linejoin:miter;stroke-opacity:1" />
    <path
       id="path4144-5"
       d="m 494.0002,-54.00334 -4,2.999999 4,3.000001 0,-2.000001 6,0 0,2.000001 4,-3.000001 -4,-2.999999 0,2.000001 -6,0 z"
       style="opacity:1;fill:#52504d;fill-opacity:1;stroke:none" />
  </g>
  <g
     id="16-16-zoom-fit-height"
     transform="matrix(0,1,-1,0,-14.00334,-463.00018)"
     style="display:inline;enable-background:new">
    <rect
       id="rect4155"
       width="16"
       height="16"
       x="489"
       y="-59"
       style="opacity:0;fill:#0000ff;fill-rule:evenodd;stroke:none;stroke-width:1px;stroke-linecap:butt;stroke-linejoin:miter;stroke-opacity:1" />
    <path
       id="path4157"
       d="m 494.0002,-54.00334 -4,2.999999 4,3.000001 0,-2.000001 6,0 0,2.000001 4,-3.000001 -4,-2.999999 0,2.000001 -6,0 z"
       style="opacity:1;fill:#52504d;fill-opacity:1;stroke:none" />
  </g>
</svg>
